<svg xmlns="http://www.w3.org/2000/svg" viewBox="0 0 1440 800" preserveAspectRatio="xMidYMid slice">
  <defs>
    <linearGradient id="sky" x1="0" y1="0" x2="0" y2="1">
      <stop offset="0" stop-color="#0B2454"/>
      <stop offset="1" stop-color="#16336f"/>
    </linearGradient>
  </defs>
  <rect width="1440" height="800" fill="url(#sky)"/>
  <!-- abstract city skyline -->
  <g fill="#0e2a63" opacity="0.9">
    <rect x="80" y="430" width="90" height="370"/>
    <rect x="190" y="360" width="70" height="440"/>
    <rect x="280" y="470" width="110" height="330"/>
    <rect x="410" y="320" width="80" height="480"/>
    <rect x="980" y="400" width="100" height="400"/>
    <rect x="1100" y="350" width="80" height="450"/>
    <rect x="1200" y="450" width="120" height="350"/>
    <rect x="1340" y="380" width="80" height="420"/>
  </g>
  <g fill="#ffce9e" opacity="0.5">
    <rect x="100" y="460" width="14" height="20"/><rect x="130" y="460" width="14" height="20"/>
    <rect x="210" y="400" width="12" height="18"/><rect x="235" y="400" width="12" height="18"/>
    <rect x="430" y="360" width="12" height="18"/><rect x="455" y="360" width="12" height="18"/>
    <rect x="1120" y="390" width="12" height="18"/><rect x="1145" y="390" width="12" height="18"/>
  </g>
  <!-- road -->
  <path d="M0 800 L1440 800 L1440 640 C1080 700 360 700 0 640 Z" fill="#091c45"/>
  <path d="M120 800 L1320 800" stroke="#FF6B00" stroke-width="6" stroke-dasharray="40 34" opacity="0.6"/>
  <circle cx="1180" cy="180" r="120" fill="#FF6B00" opacity="0.18"/>
</svg>
