<svg xmlns="http://www.w3.org/2000/svg" viewBox="0 0 320 180" role="img" aria-label="Tempo Traveller">
  <ellipse cx="160" cy="158" rx="132" ry="12" fill="#0B2454" opacity="0.08"/>
  <path d="M26 128 L26 64 C26 56 32 50 40 50 L236 50 C246 50 255 55 261 64 L286 100 C292 108 294 116 294 124 L294 126 C294 130 290 134 284 134 L34 134 C29 134 26 130 26 126 Z" fill="#FF6B00"/>
  <path d="M40 60 L232 60 C239 60 245 63 249 70 L266 96 L40 96 Z" fill="#cfe0ff"/>
  <path d="M86 60 L86 96 M134 60 L134 96 M182 60 L182 96 M230 64 L246 92" stroke="#FF6B00" stroke-width="4"/>
  <rect x="26" y="120" width="268" height="16" rx="8" fill="#e85f00"/>
  <circle cx="86" cy="136" r="24" fill="#0B2454"/><circle cx="86" cy="136" r="11" fill="#9fb3d8"/>
  <circle cx="244" cy="136" r="24" fill="#0B2454"/><circle cx="244" cy="136" r="11" fill="#9fb3d8"/>
</svg>
